<?xml version="1.0" encoding="utf-8"?>
<!-- Generator: Adobe Illustrator 18.1.1, SVG Export Plug-In . SVG Version: 6.00 Build 0)  -->
<!DOCTYPE svg PUBLIC "-//W3C//DTD SVG 1.1//EN" "http://www.w3.org/Graphics/SVG/1.1/DTD/svg11.dtd">
<svg version="1.1" id="Layer_1" xmlns="http://www.w3.org/2000/svg" xmlns:xlink="http://www.w3.org/1999/xlink" x="0px" y="0px"
	 viewBox="0 0 400 200" enable-background="new 0 0 400 200" xml:space="preserve">
<path fill="#FFFFFF" d="M169,59.2c22.9,0,41.6-18.6,41.6-41.5v83.1c0,22.9-18.6,41.5-41.6,41.5c-22.9,0-41.5-18.6-41.5-41.5
	S146.1,59.2,169,59.2 M82.7,100.1c0-22.9-18.6-41.5-41.5-41.5c-22.9,0-41.5,18.6-41.5,41.5v83.1c0-22.9,18.6-41.5,41.5-41.5
	C64.1,141.6,82.7,123,82.7,100.1 M222.8,100.8c0,22.9,18.6,41.5,41.5,41.5s41.5-18.6,41.5-41.5V17.7c0,22.9-18.6,41.5-41.5,41.5
	S222.8,77.9,222.8,100.8 M118.2,71.1c0-6.9-5.6-12.5-12.5-12.5c-6.9,0-12.5,5.6-12.5,12.5v58.2c0,6.9,5.6,12.5,12.5,12.5
	c6.9,0,12.5-5.6,12.5-12.5V71.1z M358.1,76c-16.3,0-31-6.7-41.5-17.5v41.6c0,22.9,18.6,41.5,41.5,41.5c22.9,0,41.5,18.6,41.5,41.5
	v-83.1V58.5C389.1,69.3,374.4,76,358.1,76"/>
</svg>
